Coordinates
version=1
nRows=13
nColumns=38
inDegrees=no

Units are S.I. units (second, meters, Newtons, ...)
If the header above contains a line with 'inDegrees', this indicates whether rotational values are in degrees (yes) or radians (no).

endheader
time	pelvis_tilt	pelvis_list	pelvis_rotation	pelvis_tx	pelvis_ty	pelvis_tz	hip_flexion_r	hip_adduction_r	hip_rotation_r	knee_angle_r	ankle_angle_r	subtalar_angle_r	mtp_angle_r	hip_flexion_l	hip_adduction_l	hip_rotation_l	knee_angle_l	ankle_angle_l	subtalar_angle_l	mtp_angle_l	lumbar_extension	lumbar_bending	lumbar_rotation	arm_flex_r	arm_add_r	arm_rot_r	elbow_flex_r	pro_sup_r	wrist_flex_r	wrist_dev_r	arm_flex_l	arm_add_l	arm_rot_l	elbow_flex_l	pro_sup_l	wrist_flex_l	wrist_dev_l
0.56	0.0857132	1.23365	-1.61691	0.635335	0.992363	1.1095	0.00740079	-0.0302782	0.0879308	1.24183	-0.230642	0	0	-0.21127	-0.0628124	-0.374729	0.460741	-0.36047	0	0	-0.431784	0.0670427	-0.0625203	0.58911	-0.512055	0.664575	1.11866	0.545067	0	0	0.380428	-0.480775	0.213621	1.05546	0.68197	0	0
0.57	0.0816909	1.23681	-1.60968	0.638077	0.983446	1.11095	0.0258146	-0.0216661	0.0877858	1.22836	-0.213829	0	0	-0.218252	-0.0630713	-0.377062	0.45687	-0.367972	0	0	-0.430404	0.0708712	-0.0658333	0.58958	-0.512412	0.665341	1.11828	0.544118	0	0	0.381791	-0.48013	0.214556	1.05337	0.682016	0	0
0.58	0.0780723	1.23983	-1.60305	0.640779	0.974639	1.11223	0.0432406	-0.014335	0.0868506	1.21129	-0.199159	0	0	-0.224591	-0.0632461	-0.379172	0.453977	-0.375196	0	0	-0.429161	0.0745606	-0.0690154	0.590463	-0.512928	0.666351	1.11786	0.542891	0	0	0.383092	-0.479697	0.215684	1.05166	0.682632	0	0
0.59	0.0741525	1.24298	-1.59641	0.643468	0.965906	1.11326	0.0601569	-0.00768377	0.085321	1.19079	-0.186619	0	0	-0.229971	-0.0636962	-0.381541	0.452815	-0.381097	0	0	-0.427762	0.0784373	-0.0718512	0.591609	-0.51378	0.667515	1.11759	0.541978	0	0	0.38415	-0.479108	0.216668	1.05048	0.68316	0	0
0.6	0.0697459	1.24614	-1.58918	0.646233	0.957189	1.11402	0.0760498	-0.00199608	0.0832086	1.16746	-0.17507	0	0	-0.23454	-0.0643034	-0.38331	0.453662	-0.385004	0	0	-0.426125	0.0827826	-0.0747348	0.59279	-0.515116	0.668646	1.1178	0.541788	0	0	0.384853	-0.477844	0.216989	1.04964	0.682902	0	0
0.61	0.0651905	1.2491	-1.58155	0.649013	0.948486	1.11454	0.0906278	0.00289791	0.0804172	1.14107	-0.168597	0	0	-0.238925	-0.0649632	-0.383753	0.455937	-0.38343	0	0	-0.424488	0.0873721	-0.0776773	0.59348	-0.516713	0.668783	1.1187	0.54244	0	0	0.385522	-0.476673	0.217799	1.04921	0.682308	0	0
0.62	0.0616981	1.25187	-1.57562	0.651566	0.939889	1.11481	0.104192	0.00703773	0.0784957	1.11284	-0.155739	0	0	-0.24314	-0.0657921	-0.385268	0.459415	-0.387643	0	0	-0.422969	0.0912176	-0.0803257	0.594228	-0.517314	0.668057	1.11888	0.546258	0	0	0.38589	-0.476089	0.218392	1.04933	0.682542	0	0
0.63	0.0585621	1.25431	-1.57108	0.653772	0.931392	1.11483	0.11663	0.0112257	0.0784566	1.08278	-0.142174	0	0	-0.247383	-0.0667952	-0.387607	0.464099	-0.388415	0	0	-0.421599	0.0944236	-0.0828924	0.599742	-0.519535	0.676803	1.1182	0.535448	0	0	0.384987	-0.476377	0.217434	1.05076	0.680476	0	0
0.64	0.0573177	1.25681	-1.56883	0.655788	0.922907	1.11466	0.128112	0.0146208	0.0796266	1.05074	-0.133455	0	0	-0.251663	-0.0667485	-0.38823	0.467817	-0.388226	0	0	-0.420451	0.0965716	-0.0843394	0.60117	-0.520217	0.677394	1.11868	0.535315	0	0	0.384795	-0.476681	0.217354	1.05246	0.680151	0	0
0.65	0.0574294	1.25935	-1.56809	0.657666	0.914414	1.11428	0.138391	0.0173984	0.0820496	1.01702	-0.1248	0	0	-0.255994	-0.0662252	-0.38786	0.471296	-0.387383	0	0	-0.419147	0.0981765	-0.0857959	0.6023	-0.520724	0.677551	1.11939	0.535237	0	0	0.384326	-0.477172	0.217009	1.05442	0.680121	0	0
0.66	0.0584141	1.26227	-1.56845	0.659385	0.905901	1.11369	0.14763	0.0193884	0.0843561	0.980305	-0.117082	0	0	-0.260002	-0.0653542	-0.386729	0.474753	-0.385906	0	0	-0.417385	0.0993392	-0.0870475	0.602907	-0.521037	0.677073	1.12033	0.535742	0	0	0.383655	-0.477302	0.215901	1.05634	0.679571	0	0
0.67	0.0609229	1.2658	-1.57056	0.660989	0.897327	1.11289	0.156216	0.020258	0.086474	0.941143	-0.111105	0	0	-0.263537	-0.0639153	-0.385691	0.477805	-0.385966	0	0	-0.414761	0.0999208	-0.0881626	0.603286	-0.521539	0.677131	1.12147	0.534824	0	0	0.382735	-0.477556	0.215015	1.05816	0.67906	0	0
0.68	0.0644795	1.26984	-1.57407	0.662447	0.888667	1.11191	0.163986	0.0205741	0.0890779	0.9001	-0.103487	0	0	-0.266617	-0.0620566	-0.384793	0.48076	-0.384501	0	0	-0.411432	0.100005	-0.0889069	0.60319	-0.521953	0.676924	1.1226	0.534557	0	0	0.381573	-0.477827	0.214173	1.05985	0.679551	0	0
